<svg width="365" height="45" viewBox="0 0 365 45" fill="none" xmlns="http://www.w3.org/2000/svg">
<path d="M22.1094 10C15.4215 10 10 15.4215 10 22.1094C10 28.7972 15.4215 34.2188 22.1094 34.2188C28.7972 34.2188 34.2188 28.7972 34.2188 22.1094C34.2188 15.4215 28.7972 10 22.1094 10ZM27.8288 26.9313C27.7511 27.0225 25.8866 29.1643 22.465 29.1643C18.3296 29.1643 15.4101 26.0754 15.4101 22.0565C15.4101 18.0866 18.4376 15.0545 22.4297 15.0545C25.6991 15.0545 27.4085 16.8765 27.4796 16.9541C27.5673 17.0497 27.6208 17.1716 27.6317 17.3008C27.6427 17.43 27.6104 17.5592 27.5401 17.6681L26.4473 19.3603C26.2496 19.6663 25.8236 19.7192 25.557 19.4723C25.5456 19.4619 24.2616 18.3063 22.5355 18.3063C20.2837 18.3063 18.9263 19.9457 18.9263 22.0212C18.9263 23.9549 20.1721 25.9125 22.5531 25.9125C24.4426 25.9125 25.7406 24.5288 25.7535 24.5147C26.0041 24.243 26.44 24.269 26.6572 24.5662L27.8558 26.2054C27.9336 26.3118 27.9732 26.4413 27.9683 26.573C27.9634 26.7048 27.9143 26.831 27.8288 26.9313Z" fill="#F8F9FA"/>
<path d="M53.4188 29.0094C53.3788 28.8494 53.3588 28.6827 53.3588 28.5094L53.3788 27.8494C53.3788 27.5427 53.3388 27.2694 53.2588 27.0294L52.6188 27.0494C51.4988 27.1027 50.5988 27.1294 49.9188 27.1294C49.1988 27.1294 48.3454 27.116 47.3588 27.0894C47.2788 27.0494 47.2388 26.9827 47.2388 26.8894C47.2388 26.7027 47.3588 26.4627 47.5988 26.1694C47.8388 25.876 48.1321 25.5427 48.4788 25.1694C48.7588 24.8894 49.0654 24.6494 49.3988 24.4494C49.7321 24.236 50.1654 23.9894 50.6988 23.7094C51.3254 23.376 51.8254 23.0827 52.1988 22.8294C52.5854 22.5627 52.9121 22.236 53.1788 21.8494C53.4588 21.4494 53.6254 20.9627 53.6788 20.3894C53.7188 19.1494 53.5921 18.0894 53.2988 17.2094C53.0188 16.316 52.4788 15.6627 51.6788 15.2494C51.0654 15.0094 50.3254 14.8894 49.4588 14.8894C48.7121 14.8894 48.0188 14.9894 47.3788 15.1894C46.7388 15.3894 46.2654 15.6894 45.9588 16.0894C45.2121 16.9427 44.8388 18.0494 44.8388 19.4094C44.8388 19.836 44.8788 20.2694 44.9588 20.7094L44.9788 20.7494C45.2988 20.776 45.5321 20.7894 45.6788 20.7894C46.0788 20.7894 46.5188 20.7494 46.9988 20.6694L47.0188 20.6294V20.4894L46.9988 19.7694C46.9988 19.116 47.1321 18.5227 47.3988 17.9894C47.6788 17.4427 48.1054 17.136 48.6788 17.0694C49.2388 17.0294 49.5388 17.0094 49.5788 17.0094C50.2054 17.0094 50.6988 17.196 51.0588 17.5694C51.4321 17.9294 51.6188 18.6294 51.6188 19.6694L51.5988 20.1294C51.5588 20.7827 51.1388 21.316 50.3388 21.7294C50.1521 21.8627 49.9721 21.9827 49.7988 22.0894C49.6254 22.1827 49.4654 22.276 49.3188 22.3694C48.4521 22.916 47.7588 23.376 47.2388 23.7494C46.7188 24.1094 46.2454 24.5227 45.8188 24.9894C45.3921 25.5227 45.1254 26.0427 45.0188 26.5494C44.9121 27.0427 44.8521 27.6827 44.8388 28.4694L44.8188 29.0694C44.8188 29.096 44.8254 29.116 44.8388 29.1294H45.7388L48.0188 29.1094C51.6188 29.0427 53.4188 29.0094 53.4188 29.0094ZM54.8197 22.8094C54.8464 23.876 54.913 24.7627 55.0197 25.4694C55.1264 26.1627 55.3797 26.816 55.7797 27.4294C56.193 28.0427 56.8197 28.5027 57.6597 28.8094C58.0997 28.9827 58.6597 29.0694 59.3397 29.0694C60.3797 29.0694 61.2464 28.7227 61.9397 28.0294C62.633 27.336 63.1397 26.4627 63.4597 25.4094C63.793 24.356 63.9597 23.2827 63.9597 22.1894L63.9397 21.6494C63.953 21.5294 63.9597 21.336 63.9597 21.0694C63.9597 20.1094 63.7997 19.156 63.4797 18.2094C63.1597 17.2627 62.653 16.476 61.9597 15.8494C61.2664 15.2227 60.3864 14.9094 59.3197 14.9094C58.5997 14.9094 57.913 15.076 57.2597 15.4094C56.6197 15.7427 56.1397 16.1894 55.8197 16.7494C55.4197 17.376 55.1397 18.0494 54.9797 18.7694C54.833 19.4894 54.7597 20.2827 54.7597 21.1494C54.7597 21.4027 54.773 21.7827 54.7997 22.2894L54.8197 22.8094ZM56.7397 22.4294C56.7264 22.056 56.733 21.4027 56.7597 20.4694C56.7864 20.136 56.813 19.876 56.8397 19.6894C56.8397 19.116 57.0064 18.516 57.3397 17.8894C57.6864 17.2494 58.3997 16.9294 59.4797 16.9294C60.2664 17.036 60.8397 17.4494 61.1997 18.1694C61.573 18.8894 61.773 19.6894 61.7997 20.5694C61.8264 21.1027 61.8397 21.456 61.8397 21.6294L61.8197 22.3694C61.8064 22.5027 61.7997 22.696 61.7997 22.9494C61.7997 22.9894 61.8064 23.3027 61.8197 23.8894C61.833 24.476 61.673 25.0827 61.3397 25.7094C61.0197 26.3227 60.5464 26.736 59.9197 26.9494C59.6797 27.0294 59.393 27.056 59.0597 27.0294C58.0997 26.9894 57.473 26.5227 57.1797 25.6294C56.8997 24.736 56.753 23.6694 56.7397 22.4294ZM73.6336 29.0094C73.5936 28.8494 73.5736 28.6827 73.5736 28.5094L73.5936 27.8494C73.5936 27.5427 73.5536 27.2694 73.4736 27.0294L72.8336 27.0494C71.7136 27.1027 70.8136 27.1294 70.1336 27.1294C69.4136 27.1294 68.5603 27.116 67.5736 27.0894C67.4936 27.0494 67.4536 26.9827 67.4536 26.8894C67.4536 26.7027 67.5736 26.4627 67.8136 26.1694C68.0536 25.876 68.3469 25.5427 68.6936 25.1694C68.9736 24.8894 69.2803 24.6494 69.6136 24.4494C69.9469 24.236 70.3803 23.9894 70.9136 23.7094C71.5403 23.376 72.0403 23.0827 72.4136 22.8294C72.8003 22.5627 73.1269 22.236 73.3936 21.8494C73.6736 21.4494 73.8403 20.9627 73.8936 20.3894C73.9336 19.1494 73.8069 18.0894 73.5136 17.2094C73.2336 16.316 72.6936 15.6627 71.8936 15.2494C71.2803 15.0094 70.5403 14.8894 69.6736 14.8894C68.9269 14.8894 68.2336 14.9894 67.5936 15.1894C66.9536 15.3894 66.4803 15.6894 66.1736 16.0894C65.4269 16.9427 65.0536 18.0494 65.0536 19.4094C65.0536 19.836 65.0936 20.2694 65.1736 20.7094L65.1936 20.7494C65.5136 20.776 65.7469 20.7894 65.8936 20.7894C66.2936 20.7894 66.7336 20.7494 67.2136 20.6694L67.2336 20.6294V20.4894L67.2136 19.7694C67.2136 19.116 67.3469 18.5227 67.6136 17.9894C67.8936 17.4427 68.3203 17.136 68.8936 17.0694C69.4536 17.0294 69.7536 17.0094 69.7936 17.0094C70.4203 17.0094 70.9136 17.196 71.2736 17.5694C71.6469 17.9294 71.8336 18.6294 71.8336 19.6694L71.8136 20.1294C71.7736 20.7827 71.3536 21.316 70.5536 21.7294C70.3669 21.8627 70.1869 21.9827 70.0136 22.0894C69.8403 22.1827 69.6803 22.276 69.5336 22.3694C68.6669 22.916 67.9736 23.376 67.4536 23.7494C66.9336 24.1094 66.4603 24.5227 66.0336 24.9894C65.6069 25.5227 65.3403 26.0427 65.2336 26.5494C65.1269 27.0427 65.0669 27.6827 65.0536 28.4694L65.0336 29.0694C65.0336 29.096 65.0403 29.116 65.0536 29.1294H65.9536L68.2336 29.1094C71.8336 29.0427 73.6336 29.0094 73.6336 29.0094ZM80.0545 27.3494C80.0545 26.1494 80.0879 24.8027 80.1545 23.3094C80.2079 21.5227 80.2345 20.1827 80.2345 19.2894V18.2694V17.1494C80.2345 16.1627 80.2145 15.416 80.1745 14.9094C79.4012 14.8827 78.8679 14.8694 78.5745 14.8694L77.3345 14.8894C77.2145 15.0494 76.9945 15.3827 76.6745 15.8894C76.3545 16.3827 75.9945 16.976 75.5945 17.6694C75.2079 18.3494 74.8879 18.9627 74.6345 19.5094C74.6345 19.5894 74.8879 19.7027 75.3945 19.8494C75.9012 19.996 76.2145 20.0694 76.3345 20.0694C76.4812 20.0694 76.6479 19.9294 76.8345 19.6494C77.0345 19.3694 77.2545 18.9894 77.4945 18.5094C77.8012 17.9094 77.9945 17.616 78.0745 17.6294C78.0879 17.7227 78.0945 17.8427 78.0945 17.9894V18.5894C78.0812 19.4694 78.0412 21.1627 77.9745 23.6694C77.9079 24.936 77.8745 26.056 77.8745 27.0294V28.9894C78.2345 29.0427 78.6812 29.0694 79.2145 29.0694C79.7345 29.0694 80.0145 29.0094 80.0545 28.8894V27.3494ZM93.5172 27.3694C93.1439 27.3694 92.5305 27.356 91.6772 27.3294C90.1839 27.2627 88.9572 27.236 87.9972 27.2494L87.9772 27.2294C87.9905 26.9227 87.9905 26.5894 87.9772 26.2294C87.9772 25.856 87.9772 25.5827 87.9772 25.4094C87.9639 25.2094 87.9572 24.9227 87.9572 24.5494C87.9572 23.9894 87.9839 23.556 88.0372 23.2494C88.1039 23.2094 88.4372 23.176 89.0372 23.1494C89.3839 23.136 89.7572 23.1294 90.1572 23.1294C90.3972 23.1294 90.6105 23.1227 90.7972 23.1094C90.9839 23.096 91.2305 23.076 91.5372 23.0494C91.5239 22.876 91.5172 22.716 91.5172 22.5694C91.5305 22.4094 91.5372 22.2694 91.5372 22.1494C91.5372 21.7894 91.5239 21.5094 91.4972 21.3094V21.2894C91.1105 21.2627 90.6105 21.2494 89.9972 21.2494C89.2772 21.2494 88.5972 21.2427 87.9572 21.2294L87.9372 21.2094C87.8839 21.0094 87.8572 20.7027 87.8572 20.2894C87.8572 20.116 87.8705 19.696 87.8972 19.0294C87.9639 18.1494 87.9839 17.5427 87.9572 17.2094L88.0372 17.1894C88.5839 17.1494 89.2439 17.1294 90.0172 17.1294H90.6572H91.7572C92.4905 17.1294 93.3372 17.096 94.2972 17.0294V16.8294L94.3172 16.2294C94.3305 16.1094 94.3372 15.916 94.3372 15.6494C94.3372 15.4494 94.3305 15.3027 94.3172 15.2094C94.3172 15.1694 93.8305 15.1494 92.8572 15.1494C90.7772 15.1494 88.5039 15.2094 86.0372 15.3294C85.9572 16.6094 85.9172 18.2094 85.9172 20.1294C85.9172 21.0894 85.9305 22.556 85.9572 24.5294C85.9972 26.0094 86.0172 27.5027 86.0172 29.0094C86.8039 29.076 87.7705 29.1094 88.9172 29.1094C89.4505 29.1094 90.2372 29.096 91.2772 29.0694C92.5972 29.0427 93.5772 29.036 94.2172 29.0494C94.3105 28.6494 94.3439 28.096 94.3172 27.3894V27.3494L93.5172 27.3694ZM98.4369 15.4094C98.3702 15.4227 98.2635 15.4294 98.1169 15.4294L97.5769 15.4094C97.1902 15.3827 96.9035 15.376 96.7169 15.3894C96.6902 15.616 96.6769 16.0094 96.6769 16.5694V17.5094L96.6969 19.6094C95.5902 19.6094 94.8902 19.596 94.5969 19.5694L94.5369 21.2094L96.0569 21.2294C96.3769 21.2294 96.5769 21.2227 96.6569 21.2094V22.1694C96.6569 24.2494 96.7302 25.936 96.8769 27.2294C97.0369 27.9894 97.4102 28.496 97.9969 28.7494C98.5835 29.0027 99.3969 29.1294 100.437 29.1294C101.037 29.1294 101.477 29.1227 101.757 29.1094C101.824 28.8694 101.857 28.6294 101.857 28.3894C101.857 28.2427 101.824 27.9027 101.757 27.3694C101.224 27.396 100.63 27.376 99.9769 27.3094C99.3369 27.2427 98.9102 27.076 98.6969 26.8094C98.6169 26.6227 98.5635 26.4027 98.5369 26.1494C98.5102 25.896 98.4969 25.4694 98.4969 24.8694V24.1894V21.1294C99.2169 21.1427 100.304 21.1494 101.757 21.1494C101.744 21.016 101.75 20.8027 101.777 20.5094L101.797 20.0494C101.797 19.756 101.757 19.556 101.677 19.4494C100.397 19.516 99.3235 19.5627 98.4569 19.5894L98.4369 18.4694V15.4094ZM104.231 24.0494C104.391 24.0894 104.638 24.1094 104.971 24.1094C105.478 24.136 106.258 24.1494 107.311 24.1494C107.805 24.1494 108.125 24.1427 108.271 24.1294C109.511 24.076 110.258 24.0094 110.511 23.9294C110.538 23.556 110.551 23.2694 110.551 23.0694C110.551 20.6427 109.645 19.276 107.831 18.9694C107.365 18.8627 106.918 18.8094 106.491 18.8094C105.678 18.8094 104.938 18.9694 104.271 19.2894C103.605 19.6094 103.145 20.0627 102.891 20.6494C102.758 20.996 102.665 21.3494 102.611 21.7094C102.571 22.0694 102.538 22.4227 102.511 22.7694C102.485 23.1027 102.465 23.3227 102.451 23.4294C102.385 24.896 102.585 26.2027 103.051 27.3494C103.518 28.4827 104.271 29.136 105.311 29.3094C105.378 29.336 105.545 29.3627 105.811 29.3894C106.091 29.416 106.391 29.4294 106.711 29.4294C107.418 29.4294 108.065 29.3494 108.651 29.1894C109.251 29.0427 109.671 28.7894 109.911 28.4294C110.165 28.016 110.325 27.5827 110.391 27.1294C110.458 26.676 110.485 26.0694 110.471 25.3094C110.325 25.3227 110.191 25.3294 110.071 25.3294C109.965 25.316 109.871 25.3094 109.791 25.3094C109.685 25.296 109.525 25.2894 109.311 25.2894C109.071 25.2894 108.811 25.3094 108.531 25.3494C108.558 25.5627 108.571 25.7094 108.571 25.7894C108.571 26.3094 108.411 26.7227 108.091 27.0294C107.785 27.3227 107.305 27.4694 106.651 27.4694C105.025 27.4694 104.211 26.6427 104.211 24.9894L104.231 24.4094V24.0494ZM109.091 22.7694C109.091 22.8227 109.078 22.8627 109.051 22.8894C109.038 22.9027 108.998 22.916 108.931 22.9294C108.771 22.9427 108.051 22.9494 106.771 22.9494C106.425 22.9627 106.005 22.9694 105.511 22.9694C105.005 22.9694 104.671 22.9427 104.511 22.8894C104.365 22.836 104.291 22.7294 104.291 22.5694C104.291 22.516 104.305 22.4094 104.331 22.2494C104.425 21.5827 104.651 21.0694 105.011 20.7094C105.385 20.3494 106.005 20.1694 106.871 20.1694C107.098 20.1694 107.285 20.1827 107.431 20.2094C107.578 20.236 107.751 20.296 107.951 20.3894C108.311 20.616 108.585 20.9294 108.771 21.3294C108.971 21.7294 109.078 22.136 109.091 22.5494V22.7694ZM113.458 19.1694C113.458 19.1427 113.351 19.1294 113.138 19.1294C112.871 19.1294 112.658 19.136 112.498 19.1494C112.378 19.1494 112.238 19.156 112.078 19.1694C111.931 19.1694 111.791 19.1627 111.658 19.1494C111.631 20.536 111.618 21.5494 111.618 22.1894C111.618 22.976 111.631 24.156 111.658 25.7294L111.678 29.1694C111.891 29.156 112.098 29.1494 112.298 29.1494C112.511 29.1627 112.665 29.1694 112.758 29.1694C112.998 29.1694 113.231 29.1427 113.458 29.0894V29.0094C113.458 26.6894 113.431 24.616 113.378 22.7894C113.365 22.2694 113.425 21.916 113.558 21.7294C113.691 21.5427 113.945 21.4027 114.318 21.3094C114.771 21.2027 115.178 21.1494 115.538 21.1494C115.885 21.1494 116.205 21.1827 116.498 21.2494C116.751 21.316 116.978 21.3894 117.178 21.4694C117.165 21.336 117.158 21.136 117.158 20.8694L117.178 19.2094C117.178 19.1827 117.018 19.1694 116.698 19.1694C116.351 19.1694 115.958 19.196 115.518 19.2494C115.091 19.2894 114.725 19.3627 114.418 19.4694C114.218 19.536 114.031 19.6027 113.858 19.6694C113.698 19.736 113.571 19.796 113.478 19.8494C113.478 19.7294 113.471 19.6294 113.458 19.5494C113.458 19.456 113.458 19.3294 113.458 19.1694ZM120.315 19.1694C120.315 19.1294 120.249 19.1094 120.115 19.1094C120.009 19.1094 119.902 19.116 119.795 19.1294C119.689 19.1427 119.595 19.1494 119.515 19.1494C119.382 19.1627 119.209 19.1694 118.995 19.1694C118.782 19.1694 118.595 19.1627 118.435 19.1494C118.409 20.536 118.395 21.5494 118.395 22.1894C118.395 22.976 118.409 24.156 118.435 25.7294L118.455 29.1694C118.575 29.156 118.742 29.1494 118.955 29.1494C119.062 29.1494 119.235 29.1494 119.475 29.1494C119.729 29.1627 119.982 29.1427 120.235 29.0894V29.0094C120.275 28.4894 120.295 27.9827 120.295 27.4894C120.295 27.2494 120.282 26.876 120.255 26.3694C120.229 25.516 120.215 24.716 120.215 23.9694C120.215 23.4894 120.222 23.1627 120.235 22.9894C120.289 22.3627 120.529 21.9294 120.955 21.6894C121.395 21.4494 122.075 21.3227 122.995 21.3094C123.609 21.2694 123.935 21.4827 123.975 21.9494C124.095 22.3094 124.169 22.7227 124.195 23.1894C124.235 23.656 124.255 23.9294 124.255 24.0094C124.269 24.3827 124.262 25.0027 124.235 25.8694L124.215 27.1494V28.0094C124.215 28.5427 124.229 28.916 124.255 29.1294H124.915C125.395 29.1294 125.762 29.1094 126.015 29.0694C126.002 28.816 125.995 28.396 125.995 27.8094C125.995 27.356 126.009 26.6227 126.035 25.6094C126.062 24.5427 126.075 23.756 126.075 23.2494C126.075 21.2494 125.915 20.1094 125.595 19.8294C125.129 19.4427 124.529 19.236 123.795 19.2094C123.182 19.2094 122.569 19.316 121.955 19.5294C121.342 19.7294 120.809 19.9627 120.355 20.2294V19.7294C120.355 19.5027 120.342 19.316 120.315 19.1694ZM133.779 19.0694C133.606 19.0694 133.519 19.0827 133.519 19.1094C133.519 19.216 133.506 19.4027 133.479 19.6694C133.453 19.856 133.439 20.0094 133.439 20.1294C133.253 19.756 132.959 19.5027 132.559 19.3694C132.173 19.2227 131.679 19.1494 131.079 19.1494L130.439 19.1694C129.813 19.1827 129.239 19.396 128.719 19.8094C128.213 20.2094 127.813 20.756 127.519 21.4494C127.226 22.1427 127.079 22.9227 127.079 23.7894C127.079 24.576 127.186 25.3827 127.399 26.2094C127.613 27.036 127.939 27.736 128.379 28.3094C128.833 28.8694 129.379 29.1494 130.019 29.1494C130.686 29.1494 131.366 29.0694 132.059 28.9094C132.753 28.7494 133.259 28.4494 133.579 28.0094C133.579 28.1027 133.566 28.216 133.539 28.3494C133.526 28.4827 133.526 28.6027 133.539 28.7094C133.539 28.9627 133.606 29.1094 133.739 29.1494C133.806 29.1494 133.879 29.1427 133.959 29.1294C134.039 29.116 134.133 29.1094 134.239 29.1094L134.879 29.1294H135.219C135.339 29.1027 135.413 29.036 135.439 28.9294C135.466 28.8227 135.479 28.7027 135.479 28.5694C135.479 28.436 135.479 28.3494 135.479 28.3094C135.533 27.5227 135.559 26.6494 135.559 25.6894L135.539 23.4494C135.513 22.4627 135.499 21.716 135.499 21.2094C135.499 20.596 135.506 20.136 135.519 19.8294V19.6294C135.519 19.5227 135.506 19.3627 135.479 19.1494L134.959 19.1094C134.479 19.0694 134.086 19.056 133.779 19.0694ZM131.539 20.8694C132.179 20.9094 132.626 21.0027 132.879 21.1494C133.146 21.296 133.319 21.5694 133.399 21.9694C133.479 22.356 133.519 23.0294 133.519 23.9894C133.519 24.8694 133.479 25.5294 133.399 25.9694C133.333 26.4094 133.146 26.7494 132.839 26.9894C132.533 27.2294 132.039 27.3494 131.359 27.3494C129.693 27.4427 128.826 26.416 128.759 24.2694C128.759 23.616 128.813 23.096 128.919 22.7094C129.026 22.2027 129.313 21.7694 129.779 21.4094C130.259 21.036 130.846 20.856 131.539 20.8694ZM137.431 14.5694C137.324 15.7027 137.271 16.976 137.271 18.3894C137.271 19.2294 137.298 20.476 137.351 22.1294C137.404 23.7827 137.431 25.0227 137.431 25.8494C137.431 26.9427 137.391 28.0294 137.311 29.1094C137.338 29.096 137.404 29.0894 137.511 29.0894C137.684 29.0894 137.831 29.096 137.951 29.1094L138.571 29.1294C138.931 29.1294 139.151 29.0827 139.231 28.9894C139.191 27.9894 139.171 26.6494 139.171 24.9694C139.171 23.4494 139.184 21.356 139.211 18.6894C139.238 16.5294 139.251 15.176 139.251 14.6294L137.431 14.5694ZM152.736 27.3694C152.363 27.3694 151.749 27.356 150.896 27.3294C149.403 27.2627 148.176 27.236 147.216 27.2494L147.196 27.2294C147.209 26.9227 147.209 26.5894 147.196 26.2294C147.196 25.856 147.196 25.5827 147.196 25.4094C147.183 25.2094 147.176 24.9227 147.176 24.5494C147.176 23.9894 147.203 23.556 147.256 23.2494C147.323 23.2094 147.656 23.176 148.256 23.1494C148.603 23.136 148.976 23.1294 149.376 23.1294C149.616 23.1294 149.829 23.1227 150.016 23.1094C150.203 23.096 150.449 23.076 150.756 23.0494C150.743 22.876 150.736 22.716 150.736 22.5694C150.749 22.4094 150.756 22.2694 150.756 22.1494C150.756 21.7894 150.743 21.5094 150.716 21.3094V21.2894C150.329 21.2627 149.829 21.2494 149.216 21.2494C148.496 21.2494 147.816 21.2427 147.176 21.2294L147.156 21.2094C147.103 21.0094 147.076 20.7027 147.076 20.2894C147.076 20.116 147.089 19.696 147.116 19.0294C147.183 18.1494 147.203 17.5427 147.176 17.2094L147.256 17.1894C147.803 17.1494 148.463 17.1294 149.236 17.1294H149.876H150.976C151.709 17.1294 152.556 17.096 153.516 17.0294V16.8294L153.536 16.2294C153.549 16.1094 153.556 15.916 153.556 15.6494C153.556 15.4494 153.549 15.3027 153.536 15.2094C153.536 15.1694 153.049 15.1494 152.076 15.1494C149.996 15.1494 147.723 15.2094 145.256 15.3294C145.176 16.6094 145.136 18.2094 145.136 20.1294C145.136 21.0894 145.149 22.556 145.176 24.5294C145.216 26.0094 145.236 27.5027 145.236 29.0094C146.023 29.076 146.989 29.1094 148.136 29.1094C148.669 29.1094 149.456 29.096 150.496 29.0694C151.816 29.0427 152.796 29.036 153.436 29.0494C153.529 28.6494 153.563 28.096 153.536 27.3894V27.3494L152.736 27.3694ZM156.585 19.1694C156.585 19.1294 156.518 19.1094 156.385 19.1094C156.278 19.1094 156.172 19.116 156.065 19.1294C155.958 19.1427 155.865 19.1494 155.785 19.1494C155.652 19.1627 155.478 19.1694 155.265 19.1694C155.052 19.1694 154.865 19.1627 154.705 19.1494C154.678 20.536 154.665 21.5494 154.665 22.1894C154.665 22.976 154.678 24.156 154.705 25.7294L154.725 29.1694C154.845 29.156 155.012 29.1494 155.225 29.1494C155.332 29.1494 155.505 29.1494 155.745 29.1494C155.998 29.1627 156.252 29.1427 156.505 29.0894V29.0094C156.545 28.4894 156.565 27.9827 156.565 27.4894C156.565 27.2494 156.552 26.876 156.525 26.3694C156.498 25.516 156.485 24.716 156.485 23.9694C156.485 23.4894 156.492 23.1627 156.505 22.9894C156.558 22.3627 156.798 21.9294 157.225 21.6894C157.665 21.4494 158.345 21.3227 159.265 21.3094C159.878 21.2694 160.205 21.4827 160.245 21.9494C160.365 22.3094 160.438 22.7227 160.465 23.1894C160.505 23.656 160.525 23.9294 160.525 24.0094C160.538 24.3827 160.532 25.0027 160.505 25.8694L160.485 27.1494V28.0094C160.485 28.5427 160.498 28.916 160.525 29.1294H161.185C161.665 29.1294 162.032 29.1094 162.285 29.0694C162.272 28.816 162.265 28.396 162.265 27.8094C162.265 27.356 162.278 26.6227 162.305 25.6094C162.332 24.5427 162.345 23.756 162.345 23.2494C162.345 21.2494 162.185 20.1094 161.865 19.8294C161.398 19.4427 160.798 19.236 160.065 19.2094C159.452 19.2094 158.838 19.316 158.225 19.5294C157.612 19.7294 157.078 19.9627 156.625 20.2294V19.7294C156.625 19.5027 156.612 19.316 156.585 19.1694ZM167.109 15.4094C167.042 15.4227 166.935 15.4294 166.789 15.4294L166.249 15.4094C165.862 15.3827 165.575 15.376 165.389 15.3894C165.362 15.616 165.349 16.0094 165.349 16.5694V17.5094L165.369 19.6094C164.262 19.6094 163.562 19.596 163.269 19.5694L163.209 21.2094L164.729 21.2294C165.049 21.2294 165.249 21.2227 165.329 21.2094V22.1694C165.329 24.2494 165.402 25.936 165.549 27.2294C165.709 27.9894 166.082 28.496 166.669 28.7494C167.255 29.0027 168.069 29.1294 169.109 29.1294C169.709 29.1294 170.149 29.1227 170.429 29.1094C170.495 28.8694 170.529 28.6294 170.529 28.3894C170.529 28.2427 170.495 27.9027 170.429 27.3694C169.895 27.396 169.302 27.376 168.649 27.3094C168.009 27.2427 167.582 27.076 167.369 26.8094C167.289 26.6227 167.235 26.4027 167.209 26.1494C167.182 25.896 167.169 25.4694 167.169 24.8694V24.1894V21.1294C167.889 21.1427 168.975 21.1494 170.429 21.1494C170.415 21.016 170.422 20.8027 170.449 20.5094L170.469 20.0494C170.469 19.756 170.429 19.556 170.349 19.4494C169.069 19.516 167.995 19.5627 167.129 19.5894L167.109 18.4694V15.4094ZM171.883 14.7094C171.87 15.016 171.883 15.6094 171.923 16.4894C171.95 16.9427 171.963 17.2694 171.963 17.4694C172.11 17.456 172.236 17.456 172.343 17.4694C172.45 17.4694 172.543 17.4694 172.623 17.4694C172.73 17.4827 172.89 17.4894 173.103 17.4894C173.45 17.4894 173.69 17.456 173.823 17.3894L173.763 14.7494C173.336 14.7494 172.71 14.736 171.883 14.7094ZM171.963 19.0294C171.883 19.9094 171.843 20.8094 171.843 21.7294C171.843 22.236 171.856 22.956 171.883 23.8894V25.5694V27.3694C171.883 28.156 171.876 28.7427 171.863 29.1294C171.916 29.116 172.063 29.1094 172.303 29.1094C172.383 29.1094 172.61 29.1094 172.983 29.1094C173.356 29.1094 173.636 29.0894 173.823 29.0494C173.77 28.0894 173.743 26.996 173.743 25.7694C173.743 24.4627 173.763 23.1694 173.803 21.8894C173.83 20.636 173.843 19.7094 173.843 19.1094V19.0494C173.363 19.0494 172.923 19.036 172.523 19.0094C172.243 18.996 172.056 18.996 171.963 19.0094V19.0294ZM178.984 15.4094C178.917 15.4227 178.81 15.4294 178.664 15.4294L178.124 15.4094C177.737 15.3827 177.45 15.376 177.264 15.3894C177.237 15.616 177.224 16.0094 177.224 16.5694V17.5094L177.244 19.6094C176.137 19.6094 175.437 19.596 175.144 19.5694L175.084 21.2094L176.604 21.2294C176.924 21.2294 177.124 21.2227 177.204 21.2094V22.1694C177.204 24.2494 177.277 25.936 177.424 27.2294C177.584 27.9894 177.957 28.496 178.544 28.7494C179.13 29.0027 179.944 29.1294 180.984 29.1294C181.584 29.1294 182.024 29.1227 182.304 29.1094C182.37 28.8694 182.404 28.6294 182.404 28.3894C182.404 28.2427 182.37 27.9027 182.304 27.3694C181.77 27.396 181.177 27.376 180.524 27.3094C179.884 27.2427 179.457 27.076 179.244 26.8094C179.164 26.6227 179.11 26.4027 179.084 26.1494C179.057 25.896 179.044 25.4694 179.044 24.8694V24.1894V21.1294C179.764 21.1427 180.85 21.1494 182.304 21.1494C182.29 21.016 182.297 20.8027 182.324 20.5094L182.344 20.0494C182.344 19.756 182.304 19.556 182.224 19.4494C180.944 19.516 179.87 19.5627 179.004 19.5894L178.984 18.4694V15.4094ZM183.758 14.7094C183.745 15.016 183.758 15.6094 183.798 16.4894C183.825 16.9427 183.838 17.2694 183.838 17.4694C183.985 17.456 184.111 17.456 184.218 17.4694C184.325 17.4694 184.418 17.4694 184.498 17.4694C184.605 17.4827 184.765 17.4894 184.978 17.4894C185.325 17.4894 185.565 17.456 185.698 17.3894L185.638 14.7494C185.211 14.7494 184.585 14.736 183.758 14.7094ZM183.838 19.0294C183.758 19.9094 183.718 20.8094 183.718 21.7294C183.718 22.236 183.731 22.956 183.758 23.8894V25.5694V27.3694C183.758 28.156 183.751 28.7427 183.738 29.1294C183.791 29.116 183.938 29.1094 184.178 29.1094C184.258 29.1094 184.485 29.1094 184.858 29.1094C185.231 29.1094 185.511 29.0894 185.698 29.0494C185.645 28.0894 185.618 26.996 185.618 25.7694C185.618 24.4627 185.638 23.1694 185.678 21.8894C185.705 20.636 185.718 19.7094 185.718 19.1094V19.0494C185.238 19.0494 184.798 19.036 184.398 19.0094C184.118 18.996 183.931 18.996 183.838 19.0094V19.0294ZM188.919 24.0494C189.079 24.0894 189.325 24.1094 189.659 24.1094C190.165 24.136 190.945 24.1494 191.999 24.1494C192.492 24.1494 192.812 24.1427 192.959 24.1294C194.199 24.076 194.945 24.0094 195.199 23.9294C195.225 23.556 195.239 23.2694 195.239 23.0694C195.239 20.6427 194.332 19.276 192.519 18.9694C192.052 18.8627 191.605 18.8094 191.179 18.8094C190.365 18.8094 189.625 18.9694 188.959 19.2894C188.292 19.6094 187.832 20.0627 187.579 20.6494C187.445 20.996 187.352 21.3494 187.299 21.7094C187.259 22.0694 187.225 22.4227 187.199 22.7694C187.172 23.1027 187.152 23.3227 187.139 23.4294C187.072 24.896 187.272 26.2027 187.739 27.3494C188.205 28.4827 188.959 29.136 189.999 29.3094C190.065 29.336 190.232 29.3627 190.499 29.3894C190.779 29.416 191.079 29.4294 191.399 29.4294C192.105 29.4294 192.752 29.3494 193.339 29.1894C193.939 29.0427 194.359 28.7894 194.599 28.4294C194.852 28.016 195.012 27.5827 195.079 27.1294C195.145 26.676 195.172 26.0694 195.159 25.3094C195.012 25.3227 194.879 25.3294 194.759 25.3294C194.652 25.316 194.559 25.3094 194.479 25.3094C194.372 25.296 194.212 25.2894 193.999 25.2894C193.759 25.2894 193.499 25.3094 193.219 25.3494C193.245 25.5627 193.259 25.7094 193.259 25.7894C193.259 26.3094 193.099 26.7227 192.779 27.0294C192.472 27.3227 191.992 27.4694 191.339 27.4694C189.712 27.4694 188.899 26.6427 188.899 24.9894L188.919 24.4094V24.0494ZM193.779 22.7694C193.779 22.8227 193.765 22.8627 193.739 22.8894C193.725 22.9027 193.685 22.916 193.619 22.9294C193.459 22.9427 192.739 22.9494 191.459 22.9494C191.112 22.9627 190.692 22.9694 190.199 22.9694C189.692 22.9694 189.359 22.9427 189.199 22.8894C189.052 22.836 188.979 22.7294 188.979 22.5694C188.979 22.516 188.992 22.4094 189.019 22.2494C189.112 21.5827 189.339 21.0694 189.699 20.7094C190.072 20.3494 190.692 20.1694 191.559 20.1694C191.785 20.1694 191.972 20.1827 192.119 20.2094C192.265 20.236 192.439 20.296 192.639 20.3894C192.999 20.616 193.272 20.9294 193.459 21.3294C193.659 21.7294 193.765 22.136 193.779 22.5494V22.7694ZM204.285 21.7094C204.285 21.1094 204.139 20.5694 203.845 20.0894C203.552 19.596 203.172 19.2494 202.705 19.0494C202.212 18.8894 201.679 18.7894 201.105 18.7494C200.705 18.7227 200.405 18.7094 200.205 18.7094C199.352 18.7094 198.652 18.7827 198.105 18.9294C197.465 19.0894 196.959 19.4294 196.585 19.9494C196.225 20.456 196.045 21.0227 196.045 21.6494C196.045 22.2227 196.225 22.756 196.585 23.2494C196.959 23.7294 197.492 24.0827 198.185 24.3094C198.385 24.4027 198.612 24.4694 198.865 24.5094C199.119 24.5494 199.452 24.5894 199.865 24.6294C200.439 24.696 200.892 24.7694 201.225 24.8494C201.559 24.916 201.832 25.056 202.045 25.2694C202.272 25.4827 202.379 25.7827 202.365 26.1694C202.379 26.756 202.045 27.2027 201.365 27.5094C201.139 27.616 200.952 27.6894 200.805 27.7294C200.672 27.7694 200.499 27.7894 200.285 27.7894C200.205 27.7894 199.952 27.776 199.525 27.7494C198.979 27.7094 198.592 27.5494 198.365 27.2694C198.139 26.9894 197.979 26.716 197.885 26.4494C197.805 26.1694 197.752 26.016 197.725 25.9894C197.685 25.9494 197.405 25.9294 196.885 25.9294C196.419 25.9294 196.065 25.9427 195.825 25.9694V26.0694C195.825 26.776 196.012 27.3894 196.385 27.9094C196.759 28.4294 197.285 28.8227 197.965 29.0894C198.645 29.3427 199.432 29.456 200.325 29.4294C201.139 29.4427 201.865 29.3027 202.505 29.0094C203.145 28.716 203.612 28.256 203.905 27.6294C204.105 27.0427 204.205 26.5427 204.205 26.1294C204.205 25.796 204.145 25.4894 204.025 25.2094C203.919 24.916 203.745 24.6227 203.505 24.3294C203.265 24.0627 202.932 23.856 202.505 23.7094C202.092 23.5494 201.612 23.4627 201.065 23.4494C200.692 23.436 200.245 23.3627 199.725 23.2294C199.205 23.096 198.879 22.9827 198.745 22.8894C198.505 22.7694 198.312 22.556 198.165 22.2494C198.112 22.1827 198.085 22.056 198.085 21.8694C198.085 21.6294 198.132 21.3827 198.225 21.1294C198.319 20.876 198.452 20.6827 198.625 20.5494C198.772 20.456 198.992 20.3827 199.285 20.3294C199.592 20.276 199.932 20.2494 200.305 20.2494C200.652 20.2494 200.912 20.2627 201.085 20.2894C201.859 20.3827 202.245 20.656 202.245 21.1094C202.245 21.5494 202.245 21.776 202.245 21.7894C202.312 21.776 202.399 21.776 202.505 21.7894C202.612 21.7894 202.719 21.7894 202.825 21.7894C202.985 21.8027 203.239 21.8094 203.585 21.8094C204.052 21.8094 204.285 21.776 204.285 21.7094ZM207.309 29.1094V29.0694C207.309 28.8827 207.329 28.4627 207.369 27.8094C207.409 27.156 207.429 26.796 207.429 26.7294C207.269 26.6627 207.003 26.6294 206.629 26.6294C206.229 26.6294 205.909 26.676 205.669 26.7694C205.669 26.9294 205.663 27.0694 205.649 27.1894L205.629 28.1694C205.629 28.5427 205.649 28.8494 205.689 29.0894H205.749L207.269 29.1094H207.309ZM217.69 15.0094C217.13 15.0627 216.59 15.0894 216.07 15.0894H215.63C215.497 15.0894 215.39 15.096 215.31 15.1094C214.563 17.2694 213.963 19.436 213.51 21.6094C213.07 23.7694 212.683 25.9027 212.35 28.0094C212.27 28.636 212.21 28.9894 212.17 29.0694V29.0894H212.39C212.723 29.076 213.017 29.076 213.27 29.0894C213.537 29.1027 213.717 29.1094 213.81 29.1094C213.917 29.1094 213.983 29.1027 214.01 29.0894C214.143 29.0627 214.263 28.816 214.37 28.3494C214.477 27.8694 214.59 27.2627 214.71 26.5294C214.803 25.996 214.85 25.7227 214.85 25.7094H215.69C216.69 25.7094 217.497 25.7227 218.11 25.7494C218.27 26.256 218.45 26.9027 218.65 27.6894C218.81 28.3427 218.937 28.8027 219.03 29.0694H219.05C219.143 29.096 219.297 29.1227 219.51 29.1494C219.67 29.176 219.823 29.1894 219.97 29.1894C220.263 29.1894 220.55 29.1627 220.83 29.1094V29.0894C220.057 25.5027 219.01 20.8094 217.69 15.0094ZM215.87 24.1494C215.71 24.136 215.497 24.1294 215.23 24.1294H214.83L215.01 23.1294C215.263 21.7427 215.483 20.596 215.67 19.6894C215.857 18.7827 216.003 18.2027 216.11 17.9494C216.217 17.6827 216.35 17.5494 216.51 17.5494C216.59 17.5494 216.69 17.5694 216.81 17.6094C216.957 17.756 217.403 19.9294 218.15 24.1294C217.483 24.1427 216.723 24.1494 215.87 24.1494ZM221.982 14.5694C221.875 15.7027 221.822 16.976 221.822 18.3894C221.822 19.2294 221.848 20.476 221.902 22.1294C221.955 23.7827 221.982 25.0227 221.982 25.8494C221.982 26.9427 221.942 28.0294 221.862 29.1094C221.888 29.096 221.955 29.0894 222.062 29.0894C222.235 29.0894 222.382 29.096 222.502 29.1094L223.122 29.1294C223.482 29.1294 223.702 29.0827 223.782 28.9894C223.742 27.9894 223.722 26.6494 223.722 24.9694C223.722 23.4494 223.735 21.356 223.762 18.6894C223.788 16.5294 223.802 15.176 223.802 14.6294L221.982 14.5694ZM226.103 14.5694C225.996 15.7027 225.943 16.976 225.943 18.3894C225.943 19.2294 225.969 20.476 226.023 22.1294C226.076 23.7827 226.103 25.0227 226.103 25.8494C226.103 26.9427 226.063 28.0294 225.983 29.1094C226.009 29.096 226.076 29.0894 226.183 29.0894C226.356 29.0894 226.503 29.096 226.623 29.1094L227.243 29.1294C227.603 29.1294 227.823 29.0827 227.903 28.9894C227.863 27.9894 227.843 26.6494 227.843 24.9694C227.843 23.4494 227.856 21.356 227.883 18.6894C227.909 16.5294 227.923 15.176 227.923 14.6294L226.103 14.5694ZM235.548 19.1694C235.548 19.1427 235.441 19.1294 235.228 19.1294C234.961 19.1294 234.748 19.136 234.588 19.1494C234.468 19.1494 234.328 19.156 234.168 19.1694C234.021 19.1694 233.881 19.1627 233.748 19.1494C233.721 20.536 233.708 21.5494 233.708 22.1894C233.708 22.976 233.721 24.156 233.748 25.7294L233.768 29.1694C233.981 29.156 234.188 29.1494 234.388 29.1494C234.601 29.1627 234.754 29.1694 234.848 29.1694C235.088 29.1694 235.321 29.1427 235.548 29.0894V29.0094C235.548 26.6894 235.521 24.616 235.468 22.7894C235.454 22.2694 235.514 21.916 235.648 21.7294C235.781 21.5427 236.034 21.4027 236.408 21.3094C236.861 21.2027 237.268 21.1494 237.628 21.1494C237.974 21.1494 238.294 21.1827 238.588 21.2494C238.841 21.316 239.068 21.3894 239.268 21.4694C239.254 21.336 239.248 21.136 239.248 20.8694L239.268 19.2094C239.268 19.1827 239.108 19.1694 238.788 19.1694C238.441 19.1694 238.048 19.196 237.608 19.2494C237.181 19.2894 236.814 19.3627 236.508 19.4694C236.308 19.536 236.121 19.6027 235.948 19.6694C235.788 19.736 235.661 19.796 235.568 19.8494C235.568 19.7294 235.561 19.6294 235.548 19.5494C235.548 19.456 235.548 19.3294 235.548 19.1694ZM240.965 14.7094C240.952 15.016 240.965 15.6094 241.005 16.4894C241.032 16.9427 241.045 17.2694 241.045 17.4694C241.192 17.456 241.318 17.456 241.425 17.4694C241.532 17.4694 241.625 17.4694 241.705 17.4694C241.812 17.4827 241.972 17.4894 242.185 17.4894C242.532 17.4894 242.772 17.456 242.905 17.3894L242.845 14.7494C242.418 14.7494 241.792 14.736 240.965 14.7094ZM241.045 19.0294C240.965 19.9094 240.925 20.8094 240.925 21.7294C240.925 22.236 240.938 22.956 240.965 23.8894V25.5694V27.3694C240.965 28.156 240.958 28.7427 240.945 29.1294C240.998 29.116 241.145 29.1094 241.385 29.1094C241.465 29.1094 241.692 29.1094 242.065 29.1094C242.438 29.1094 242.718 29.0894 242.905 29.0494C242.852 28.0894 242.825 26.996 242.825 25.7694C242.825 24.4627 242.845 23.1694 242.885 21.8894C242.912 20.636 242.925 19.7094 242.925 19.1094V19.0494C242.445 19.0494 242.005 19.036 241.605 19.0094C241.325 18.996 241.138 18.996 241.045 19.0094V19.0294ZM252.306 31.7094C252.372 31.5494 252.412 31.3627 252.426 31.1494C252.452 30.9494 252.466 30.736 252.466 30.5094C252.479 30.2827 252.486 30.1027 252.486 29.9694C252.552 28.436 252.586 26.636 252.586 24.5694C252.586 22.4894 252.559 20.676 252.506 19.1294L251.466 19.1094C251.292 19.1094 251.032 19.1227 250.686 19.1494C250.672 19.2294 250.666 19.316 250.666 19.4094C250.679 19.4894 250.686 19.5694 250.686 19.6494C250.686 19.8094 250.666 19.9827 250.626 20.1694C250.506 19.9027 250.352 19.696 250.166 19.5494C249.979 19.4027 249.692 19.3027 249.306 19.2494C248.932 19.1827 248.399 19.156 247.706 19.1694C246.652 19.236 245.879 19.6027 245.386 20.2694C244.906 20.9227 244.612 21.656 244.506 22.4694C244.412 23.2827 244.366 24.3094 244.366 25.5494C244.406 26.4827 244.592 27.2627 244.926 27.8894C245.326 28.7294 246.192 29.1494 247.526 29.1494H248.286C249.099 29.1494 249.652 29.1227 249.946 29.0694C250.252 29.016 250.519 28.856 250.746 28.5894C250.732 28.736 250.719 28.8494 250.706 28.9294C250.706 29.0094 250.706 29.0827 250.706 29.1494V29.8094V30.5494C250.732 30.856 250.706 31.0827 250.626 31.2294C250.559 31.3894 250.392 31.496 250.126 31.5494C249.872 31.616 249.466 31.6494 248.906 31.6494C248.479 31.6494 248.132 31.6427 247.866 31.6294C247.346 31.5494 247.006 31.376 246.846 31.1094C246.686 30.8427 246.606 30.536 246.606 30.1894C246.606 30.016 246.599 29.916 246.586 29.8894C246.559 29.8627 246.432 29.8494 246.206 29.8494C245.939 29.8494 245.659 29.856 245.366 29.8694C245.072 29.896 244.892 29.9227 244.826 29.9494C244.812 30.0427 244.806 30.176 244.806 30.3494C244.806 31.136 245.106 31.7894 245.706 32.3094C246.306 32.8294 247.046 33.1227 247.926 33.1894C248.326 33.216 248.652 33.2294 248.906 33.2294C249.052 33.2294 249.419 33.216 250.006 33.1894C250.512 33.1494 250.959 33.036 251.346 32.8494C251.732 32.6627 252.052 32.2827 252.306 31.7094ZM245.926 24.3494C245.926 23.3627 246.066 22.5627 246.346 21.9494C246.626 21.3227 247.139 20.9427 247.886 20.8094C248.139 20.7694 248.399 20.7494 248.666 20.7494C249.159 20.7494 249.546 20.8294 249.826 20.9894C250.426 21.3094 250.726 22.1427 250.726 23.4894C250.739 24.0627 250.746 24.8227 250.746 25.7694C250.706 26.5027 250.526 26.996 250.206 27.2494C249.899 27.5027 249.386 27.6294 248.666 27.6294C248.319 27.6294 248.046 27.6227 247.846 27.6094C247.086 27.5694 246.566 27.236 246.286 26.6094C246.006 25.9827 245.886 25.3094 245.926 24.5894V24.3494ZM255.782 17.1494C255.782 15.6427 255.768 14.8294 255.742 14.7094C255.742 14.6694 255.675 14.6494 255.542 14.6494C255.435 14.6494 255.328 14.656 255.222 14.6694C255.128 14.6827 255.048 14.6894 254.982 14.6894C254.728 14.7027 254.395 14.6894 253.982 14.6494C253.955 16.2227 253.942 17.756 253.942 19.2494L253.962 25.3694C253.975 26.3694 253.982 27.636 253.982 29.1694C254.102 29.156 254.255 29.1494 254.442 29.1494L255.042 29.1694C255.202 29.1694 255.415 29.136 255.682 29.0694V28.9894C255.708 28.6027 255.722 28.0494 255.722 27.3294C255.722 26.756 255.708 26.0294 255.682 25.1494L255.662 24.4694C255.662 23.7627 255.708 23.156 255.802 22.6494C255.908 22.1027 256.142 21.7027 256.502 21.4494C256.875 21.1827 257.322 21.0494 257.842 21.0494C258.135 21.0494 258.422 21.0894 258.702 21.1694C258.942 21.2227 259.102 21.276 259.182 21.3294C259.555 21.5827 259.755 22.136 259.782 22.9894V26.9094V28.1094C259.782 28.4027 259.795 28.7494 259.822 29.1494C260.435 29.176 261.008 29.1494 261.542 29.0694C261.515 28.536 261.502 28.0827 261.502 27.7094C261.502 27.256 261.515 26.496 261.542 25.4294C261.568 24.336 261.582 23.536 261.582 23.0294C261.582 22.136 261.548 21.416 261.482 20.8694C261.415 20.3227 261.295 19.976 261.122 19.8294C260.575 19.3627 259.815 19.1294 258.842 19.1294C258.562 19.1294 258.262 19.1494 257.942 19.1894C257.408 19.2294 257.002 19.3294 256.722 19.4894C256.455 19.636 256.142 19.8627 255.782 20.1694V18.3894V17.1494ZM266.367 15.4094C266.3 15.4227 266.193 15.4294 266.047 15.4294L265.507 15.4094C265.12 15.3827 264.833 15.376 264.647 15.3894C264.62 15.616 264.607 16.0094 264.607 16.5694V17.5094L264.627 19.6094C263.52 19.6094 262.82 19.596 262.527 19.5694L262.467 21.2094L263.987 21.2294C264.307 21.2294 264.507 21.2227 264.587 21.2094V22.1694C264.587 24.2494 264.66 25.936 264.807 27.2294C264.967 27.9894 265.34 28.496 265.927 28.7494C266.513 29.0027 267.327 29.1294 268.367 29.1294C268.967 29.1294 269.407 29.1227 269.687 29.1094C269.753 28.8694 269.787 28.6294 269.787 28.3894C269.787 28.2427 269.753 27.9027 269.687 27.3694C269.153 27.396 268.56 27.376 267.907 27.3094C267.267 27.2427 266.84 27.076 266.627 26.8094C266.547 26.6227 266.493 26.4027 266.467 26.1494C266.44 25.896 266.427 25.4694 266.427 24.8694V24.1894V21.1294C267.147 21.1427 268.233 21.1494 269.687 21.1494C269.673 21.016 269.68 20.8027 269.707 20.5094L269.727 20.0494C269.727 19.756 269.687 19.556 269.607 19.4494C268.327 19.516 267.253 19.5627 266.387 19.5894L266.367 18.4694V15.4094ZM278.641 21.7094C278.641 21.1094 278.494 20.5694 278.201 20.0894C277.908 19.596 277.528 19.2494 277.061 19.0494C276.568 18.8894 276.034 18.7894 275.461 18.7494C275.061 18.7227 274.761 18.7094 274.561 18.7094C273.708 18.7094 273.008 18.7827 272.461 18.9294C271.821 19.0894 271.314 19.4294 270.941 19.9494C270.581 20.456 270.401 21.0227 270.401 21.6494C270.401 22.2227 270.581 22.756 270.941 23.2494C271.314 23.7294 271.848 24.0827 272.541 24.3094C272.741 24.4027 272.968 24.4694 273.221 24.5094C273.474 24.5494 273.808 24.5894 274.221 24.6294C274.794 24.696 275.248 24.7694 275.581 24.8494C275.914 24.916 276.188 25.056 276.401 25.2694C276.628 25.4827 276.734 25.7827 276.721 26.1694C276.734 26.756 276.401 27.2027 275.721 27.5094C275.494 27.616 275.308 27.6894 275.161 27.7294C275.028 27.7694 274.854 27.7894 274.641 27.7894C274.561 27.7894 274.308 27.776 273.881 27.7494C273.334 27.7094 272.948 27.5494 272.721 27.2694C272.494 26.9894 272.334 26.716 272.241 26.4494C272.161 26.1694 272.108 26.016 272.081 25.9894C272.041 25.9494 271.761 25.9294 271.241 25.9294C270.774 25.9294 270.421 25.9427 270.181 25.9694V26.0694C270.181 26.776 270.368 27.3894 270.741 27.9094C271.114 28.4294 271.641 28.8227 272.321 29.0894C273.001 29.3427 273.788 29.456 274.681 29.4294C275.494 29.4427 276.221 29.3027 276.861 29.0094C277.501 28.716 277.968 28.256 278.261 27.6294C278.461 27.0427 278.561 26.5427 278.561 26.1294C278.561 25.796 278.501 25.4894 278.381 25.2094C278.274 24.916 278.101 24.6227 277.861 24.3294C277.621 24.0627 277.288 23.856 276.861 23.7094C276.448 23.5494 275.968 23.4627 275.421 23.4494C275.048 23.436 274.601 23.3627 274.081 23.2294C273.561 23.096 273.234 22.9827 273.101 22.8894C272.861 22.7694 272.668 22.556 272.521 22.2494C272.468 22.1827 272.441 22.056 272.441 21.8694C272.441 21.6294 272.488 21.3827 272.581 21.1294C272.674 20.876 272.808 20.6827 272.981 20.5494C273.128 20.456 273.348 20.3827 273.641 20.3294C273.948 20.276 274.288 20.2494 274.661 20.2494C275.008 20.2494 275.268 20.2627 275.441 20.2894C276.214 20.3827 276.601 20.656 276.601 21.1094C276.601 21.5494 276.601 21.776 276.601 21.7894C276.668 21.776 276.754 21.776 276.861 21.7894C276.968 21.7894 277.074 21.7894 277.181 21.7894C277.341 21.8027 277.594 21.8094 277.941 21.8094C278.408 21.8094 278.641 21.776 278.641 21.7094ZM285.509 19.1694C285.509 19.1427 285.402 19.1294 285.189 19.1294C284.922 19.1294 284.709 19.136 284.549 19.1494C284.429 19.1494 284.289 19.156 284.129 19.1694C283.982 19.1694 283.842 19.1627 283.709 19.1494C283.682 20.536 283.669 21.5494 283.669 22.1894C283.669 22.976 283.682 24.156 283.709 25.7294L283.729 29.1694C283.942 29.156 284.149 29.1494 284.349 29.1494C284.562 29.1627 284.715 29.1694 284.809 29.1694C285.049 29.1694 285.282 29.1427 285.509 29.0894V29.0094C285.509 26.6894 285.482 24.616 285.429 22.7894C285.415 22.2694 285.475 21.916 285.609 21.7294C285.742 21.5427 285.995 21.4027 286.369 21.3094C286.822 21.2027 287.229 21.1494 287.589 21.1494C287.935 21.1494 288.255 21.1827 288.549 21.2494C288.802 21.316 289.029 21.3894 289.229 21.4694C289.215 21.336 289.209 21.136 289.209 20.8694L289.229 19.2094C289.229 19.1827 289.069 19.1694 288.749 19.1694C288.402 19.1694 288.009 19.196 287.569 19.2494C287.142 19.2894 286.775 19.3627 286.469 19.4694C286.269 19.536 286.082 19.6027 285.909 19.6694C285.749 19.736 285.622 19.796 285.529 19.8494C285.529 19.7294 285.522 19.6294 285.509 19.5494C285.509 19.456 285.509 19.3294 285.509 19.1694ZM291.946 24.0494C292.106 24.0894 292.353 24.1094 292.686 24.1094C293.193 24.136 293.973 24.1494 295.026 24.1494C295.519 24.1494 295.839 24.1427 295.986 24.1294C297.226 24.076 297.973 24.0094 298.226 23.9294C298.253 23.556 298.266 23.2694 298.266 23.0694C298.266 20.6427 297.359 19.276 295.546 18.9694C295.079 18.8627 294.633 18.8094 294.206 18.8094C293.393 18.8094 292.653 18.9694 291.986 19.2894C291.319 19.6094 290.859 20.0627 290.606 20.6494C290.473 20.996 290.379 21.3494 290.326 21.7094C290.286 22.0694 290.253 22.4227 290.226 22.7694C290.199 23.1027 290.179 23.3227 290.166 23.4294C290.099 24.896 290.299 26.2027 290.766 27.3494C291.233 28.4827 291.986 29.136 293.026 29.3094C293.093 29.336 293.259 29.3627 293.526 29.3894C293.806 29.416 294.106 29.4294 294.426 29.4294C295.133 29.4294 295.779 29.3494 296.366 29.1894C296.966 29.0427 297.386 28.7894 297.626 28.4294C297.879 28.016 298.039 27.5827 298.106 27.1294C298.173 26.676 298.199 26.0694 298.186 25.3094C298.039 25.3227 297.906 25.3294 297.786 25.3294C297.679 25.316 297.586 25.3094 297.506 25.3094C297.399 25.296 297.239 25.2894 297.026 25.2894C296.786 25.2894 296.526 25.3094 296.246 25.3494C296.273 25.5627 296.286 25.7094 296.286 25.7894C296.286 26.3094 296.126 26.7227 295.806 27.0294C295.499 27.3227 295.019 27.4694 294.366 27.4694C292.739 27.4694 291.926 26.6427 291.926 24.9894L291.946 24.4094V24.0494ZM296.806 22.7694C296.806 22.8227 296.793 22.8627 296.766 22.8894C296.753 22.9027 296.713 22.916 296.646 22.9294C296.486 22.9427 295.766 22.9494 294.486 22.9494C294.139 22.9627 293.719 22.9694 293.226 22.9694C292.719 22.9694 292.386 22.9427 292.226 22.8894C292.079 22.836 292.006 22.7294 292.006 22.5694C292.006 22.516 292.019 22.4094 292.046 22.2494C292.139 21.5827 292.366 21.0694 292.726 20.7094C293.099 20.3494 293.719 20.1694 294.586 20.1694C294.813 20.1694 294.999 20.1827 295.146 20.2094C295.293 20.236 295.466 20.296 295.666 20.3894C296.026 20.616 296.299 20.9294 296.486 21.3294C296.686 21.7294 296.793 22.136 296.806 22.5494V22.7694ZM307.313 21.7094C307.313 21.1094 307.166 20.5694 306.873 20.0894C306.579 19.596 306.199 19.2494 305.733 19.0494C305.239 18.8894 304.706 18.7894 304.133 18.7494C303.733 18.7227 303.433 18.7094 303.233 18.7094C302.379 18.7094 301.679 18.7827 301.133 18.9294C300.493 19.0894 299.986 19.4294 299.613 19.9494C299.253 20.456 299.073 21.0227 299.073 21.6494C299.073 22.2227 299.253 22.756 299.613 23.2494C299.986 23.7294 300.519 24.0827 301.213 24.3094C301.413 24.4027 301.639 24.4694 301.893 24.5094C302.146 24.5494 302.479 24.5894 302.893 24.6294C303.466 24.696 303.919 24.7694 304.253 24.8494C304.586 24.916 304.859 25.056 305.073 25.2694C305.299 25.4827 305.406 25.7827 305.393 26.1694C305.406 26.756 305.073 27.2027 304.393 27.5094C304.166 27.616 303.979 27.6894 303.833 27.7294C303.699 27.7694 303.526 27.7894 303.313 27.7894C303.233 27.7894 302.979 27.776 302.553 27.7494C302.006 27.7094 301.619 27.5494 301.393 27.2694C301.166 26.9894 301.006 26.716 300.913 26.4494C300.833 26.1694 300.779 26.016 300.753 25.9894C300.713 25.9494 300.433 25.9294 299.913 25.9294C299.446 25.9294 299.093 25.9427 298.853 25.9694V26.0694C298.853 26.776 299.039 27.3894 299.413 27.9094C299.786 28.4294 300.313 28.8227 300.993 29.0894C301.673 29.3427 302.459 29.456 303.353 29.4294C304.166 29.4427 304.893 29.3027 305.533 29.0094C306.173 28.716 306.639 28.256 306.933 27.6294C307.133 27.0427 307.233 26.5427 307.233 26.1294C307.233 25.796 307.173 25.4894 307.053 25.2094C306.946 24.916 306.773 24.6227 306.533 24.3294C306.293 24.0627 305.959 23.856 305.533 23.7094C305.119 23.5494 304.639 23.4627 304.093 23.4494C303.719 23.436 303.273 23.3627 302.753 23.2294C302.233 23.096 301.906 22.9827 301.773 22.8894C301.533 22.7694 301.339 22.556 301.193 22.2494C301.139 22.1827 301.113 22.056 301.113 21.8694C301.113 21.6294 301.159 21.3827 301.253 21.1294C301.346 20.876 301.479 20.6827 301.653 20.5494C301.799 20.456 302.019 20.3827 302.313 20.3294C302.619 20.276 302.959 20.2494 303.333 20.2494C303.679 20.2494 303.939 20.2627 304.113 20.2894C304.886 20.3827 305.273 20.656 305.273 21.1094C305.273 21.5494 305.273 21.776 305.273 21.7894C305.339 21.776 305.426 21.776 305.533 21.7894C305.639 21.7894 305.746 21.7894 305.853 21.7894C306.013 21.8027 306.266 21.8094 306.613 21.8094C307.079 21.8094 307.313 21.776 307.313 21.7094ZM309.837 24.0494C309.997 24.0894 310.243 24.1094 310.577 24.1094C311.083 24.136 311.863 24.1494 312.917 24.1494C313.41 24.1494 313.73 24.1427 313.877 24.1294C315.117 24.076 315.863 24.0094 316.117 23.9294C316.143 23.556 316.157 23.2694 316.157 23.0694C316.157 20.6427 315.25 19.276 313.437 18.9694C312.97 18.8627 312.523 18.8094 312.097 18.8094C311.283 18.8094 310.543 18.9694 309.877 19.2894C309.21 19.6094 308.75 20.0627 308.497 20.6494C308.363 20.996 308.27 21.3494 308.217 21.7094C308.177 22.0694 308.143 22.4227 308.117 22.7694C308.09 23.1027 308.07 23.3227 308.057 23.4294C307.99 24.896 308.19 26.2027 308.657 27.3494C309.123 28.4827 309.877 29.136 310.917 29.3094C310.983 29.336 311.15 29.3627 311.417 29.3894C311.697 29.416 311.997 29.4294 312.317 29.4294C313.023 29.4294 313.67 29.3494 314.257 29.1894C314.857 29.0427 315.277 28.7894 315.517 28.4294C315.77 28.016 315.93 27.5827 315.997 27.1294C316.063 26.676 316.09 26.0694 316.077 25.3094C315.93 25.3227 315.797 25.3294 315.677 25.3294C315.57 25.316 315.477 25.3094 315.397 25.3094C315.29 25.296 315.13 25.2894 314.917 25.2894C314.677 25.2894 314.417 25.3094 314.137 25.3494C314.163 25.5627 314.177 25.7094 314.177 25.7894C314.177 26.3094 314.017 26.7227 313.697 27.0294C313.39 27.3227 312.91 27.4694 312.257 27.4694C310.63 27.4694 309.817 26.6427 309.817 24.9894L309.837 24.4094V24.0494ZM314.697 22.7694C314.697 22.8227 314.683 22.8627 314.657 22.8894C314.643 22.9027 314.603 22.916 314.537 22.9294C314.377 22.9427 313.657 22.9494 312.377 22.9494C312.03 22.9627 311.61 22.9694 311.117 22.9694C310.61 22.9694 310.277 22.9427 310.117 22.8894C309.97 22.836 309.897 22.7294 309.897 22.5694C309.897 22.516 309.91 22.4094 309.937 22.2494C310.03 21.5827 310.257 21.0694 310.617 20.7094C310.99 20.3494 311.61 20.1694 312.477 20.1694C312.703 20.1694 312.89 20.1827 313.037 20.2094C313.183 20.236 313.357 20.296 313.557 20.3894C313.917 20.616 314.19 20.9294 314.377 21.3294C314.577 21.7294 314.683 22.136 314.697 22.5494V22.7694ZM319.063 19.1694C319.063 19.1427 318.957 19.1294 318.743 19.1294C318.477 19.1294 318.263 19.136 318.103 19.1494C317.983 19.1494 317.843 19.156 317.683 19.1694C317.537 19.1694 317.397 19.1627 317.263 19.1494C317.237 20.536 317.223 21.5494 317.223 22.1894C317.223 22.976 317.237 24.156 317.263 25.7294L317.283 29.1694C317.497 29.156 317.703 29.1494 317.903 29.1494C318.117 29.1627 318.27 29.1694 318.363 29.1694C318.603 29.1694 318.837 29.1427 319.063 29.0894V29.0094C319.063 26.6894 319.037 24.616 318.983 22.7894C318.97 22.2694 319.03 21.916 319.163 21.7294C319.297 21.5427 319.55 21.4027 319.923 21.3094C320.377 21.2027 320.783 21.1494 321.143 21.1494C321.49 21.1494 321.81 21.1827 322.103 21.2494C322.357 21.316 322.583 21.3894 322.783 21.4694C322.77 21.336 322.763 21.136 322.763 20.8694L322.783 19.2094C322.783 19.1827 322.623 19.1694 322.303 19.1694C321.957 19.1694 321.563 19.196 321.123 19.2494C320.697 19.2894 320.33 19.3627 320.023 19.4694C319.823 19.536 319.637 19.6027 319.463 19.6694C319.303 19.736 319.177 19.796 319.083 19.8494C319.083 19.7294 319.077 19.6294 319.063 19.5494C319.063 19.456 319.063 19.3294 319.063 19.1694ZM324.181 21.6894C324.461 22.8494 324.734 23.916 325.001 24.8894C325.281 25.8494 325.714 27.2627 326.301 29.1294L327.741 29.1494C328.207 29.1494 328.547 29.1294 328.761 29.0894C329.267 27.6094 329.841 25.7627 330.481 23.5494C330.681 22.816 330.894 22.076 331.121 21.3294C331.347 20.5694 331.594 19.836 331.861 19.1294C331.541 19.116 331.141 19.1227 330.661 19.1494C330.394 19.176 330.201 19.1894 330.081 19.1894C329.614 20.5227 329.054 22.3027 328.401 24.5294C328.347 24.716 328.234 25.1094 328.061 25.7094C327.887 26.3094 327.741 26.756 327.621 27.0494C327.434 26.6094 327.274 26.156 327.141 25.6894C327.007 25.2227 326.801 24.4627 326.521 23.4094C325.947 21.316 325.554 19.896 325.341 19.1494C325.141 19.136 324.954 19.136 324.781 19.1494C324.621 19.1494 324.481 19.1494 324.361 19.1494C324.001 19.1494 323.721 19.136 323.521 19.1094L324.181 21.6894ZM333.821 24.0494C333.981 24.0894 334.228 24.1094 334.561 24.1094C335.068 24.136 335.848 24.1494 336.901 24.1494C337.394 24.1494 337.714 24.1427 337.861 24.1294C339.101 24.076 339.848 24.0094 340.101 23.9294C340.128 23.556 340.141 23.2694 340.141 23.0694C340.141 20.6427 339.234 19.276 337.421 18.9694C336.954 18.8627 336.508 18.8094 336.081 18.8094C335.268 18.8094 334.528 18.9694 333.861 19.2894C333.194 19.6094 332.734 20.0627 332.481 20.6494C332.348 20.996 332.254 21.3494 332.201 21.7094C332.161 22.0694 332.128 22.4227 332.101 22.7694C332.074 23.1027 332.054 23.3227 332.041 23.4294C331.974 24.896 332.174 26.2027 332.641 27.3494C333.108 28.4827 333.861 29.136 334.901 29.3094C334.968 29.336 335.134 29.3627 335.401 29.3894C335.681 29.416 335.981 29.4294 336.301 29.4294C337.008 29.4294 337.654 29.3494 338.241 29.1894C338.841 29.0427 339.261 28.7894 339.501 28.4294C339.754 28.016 339.914 27.5827 339.981 27.1294C340.048 26.676 340.074 26.0694 340.061 25.3094C339.914 25.3227 339.781 25.3294 339.661 25.3294C339.554 25.316 339.461 25.3094 339.381 25.3094C339.274 25.296 339.114 25.2894 338.901 25.2894C338.661 25.2894 338.401 25.3094 338.121 25.3494C338.148 25.5627 338.161 25.7094 338.161 25.7894C338.161 26.3094 338.001 26.7227 337.681 27.0294C337.374 27.3227 336.894 27.4694 336.241 27.4694C334.614 27.4694 333.801 26.6427 333.801 24.9894L333.821 24.4094V24.0494ZM338.681 22.7694C338.681 22.8227 338.668 22.8627 338.641 22.8894C338.628 22.9027 338.588 22.916 338.521 22.9294C338.361 22.9427 337.641 22.9494 336.361 22.9494C336.014 22.9627 335.594 22.9694 335.101 22.9694C334.594 22.9694 334.261 22.9427 334.101 22.8894C333.954 22.836 333.881 22.7294 333.881 22.5694C333.881 22.516 333.894 22.4094 333.921 22.2494C334.014 21.5827 334.241 21.0694 334.601 20.7094C334.974 20.3494 335.594 20.1694 336.461 20.1694C336.688 20.1694 336.874 20.1827 337.021 20.2094C337.168 20.236 337.341 20.296 337.541 20.3894C337.901 20.616 338.174 20.9294 338.361 21.3294C338.561 21.7294 338.668 22.136 338.681 22.5494V22.7694ZM347.228 15.3094C347.214 15.4427 347.208 15.6627 347.208 15.9694V16.3894C347.208 16.4694 347.208 16.5627 347.208 16.6694C347.221 16.7627 347.221 16.8427 347.208 16.9094C347.194 17.0694 347.188 17.2894 347.188 17.5694C347.201 17.836 347.208 18.1427 347.208 18.4894L347.228 20.1894C347.214 20.1227 347.148 20.016 347.028 19.8694C346.908 19.7094 346.741 19.5627 346.528 19.4294C346.314 19.2827 346.074 19.1894 345.808 19.1494C345.528 19.0827 345.134 19.0494 344.628 19.0494C344.001 19.0494 343.441 19.116 342.948 19.2494C342.201 19.4494 341.674 19.916 341.368 20.6494C341.074 21.3694 340.928 22.2894 340.928 23.4094C340.954 24.516 341.041 25.456 341.188 26.2294C341.348 26.9894 341.668 27.636 342.148 28.1694C342.628 28.6894 343.341 28.9827 344.288 29.0494C344.394 29.0627 344.554 29.0694 344.768 29.0694C345.208 29.0694 345.608 29.0094 345.968 28.8894C346.194 28.8494 346.414 28.7227 346.628 28.5094C346.854 28.296 347.014 28.0827 347.108 27.8694C347.174 28.056 347.208 28.3227 347.208 28.6694C347.208 28.9227 347.214 29.0627 347.228 29.0894C347.401 29.116 347.668 29.1294 348.028 29.1294C348.308 29.1294 348.661 29.116 349.088 29.0894C349.101 28.6094 349.108 27.876 349.108 26.8894C349.108 25.8227 349.101 24.876 349.088 24.0494C349.074 23.2094 349.061 22.4894 349.048 21.8894C348.994 19.4627 348.968 17.616 348.968 16.3494V15.0294C348.794 15.0027 348.534 14.9894 348.188 14.9894C347.574 14.9894 347.254 15.0227 347.228 15.0894V15.3094ZM345.288 20.5494C345.861 20.576 346.281 20.7227 346.548 20.9894C346.828 21.256 347.001 21.6027 347.068 22.0294C347.148 22.456 347.194 23.0494 347.208 23.8094C347.208 24.6094 347.161 25.256 347.068 25.7494C346.974 26.2427 346.768 26.6427 346.448 26.9494C346.128 27.2427 345.648 27.3894 345.008 27.3894C344.448 27.3894 343.994 27.296 343.648 27.1094C343.314 26.9094 343.048 26.5694 342.848 26.0894C342.661 25.596 342.554 24.9094 342.528 24.0294C342.528 23.4427 342.548 23.0027 342.588 22.7094C342.641 21.9627 342.861 21.416 343.248 21.0694C343.634 20.7094 344.188 20.5294 344.908 20.5294L345.288 20.5494ZM352.466 29.1094V29.0694C352.466 28.8827 352.486 28.4627 352.526 27.8094C352.566 27.156 352.586 26.796 352.586 26.7294C352.426 26.6627 352.159 26.6294 351.786 26.6294C351.386 26.6294 351.066 26.676 350.826 26.7694C350.826 26.9294 350.819 27.0694 350.806 27.1894L350.786 28.1694C350.786 28.5427 350.806 28.8494 350.846 29.0894H350.906L352.426 29.1094H352.466Z" fill="#F8F9FA"/>
</svg>
