<svg width="158" height="150" viewBox="0 0 158 150" fill="none" xmlns="http://www.w3.org/2000/svg">
<path d="M118.007 48.8379L117.338 47.9639C107.684 35.3518 94.7309 28.9269 79.9385 28.5512C70.9404 28.3491 62.1633 30.5172 54.5434 35.0142L53.8686 35.4124L53.3205 34.8525L46.974 28.3689L46.1094 27.4855L47.1539 26.8244C57.0108 20.5857 68.4551 17.4997 80.226 17.7693L80.228 17.7694C93.1788 18.0918 105.55 22.5699 115.565 30.5914L126.83 20.2251C126.472 18.9269 126.306 17.5933 126.305 16.2659M118.007 48.8379L141.833 31.2923C141.836 31.2923 141.838 31.2923 141.841 31.2923M118.007 48.8379L118.813 48.0884L137.331 30.8672M118.007 48.8379L137.331 30.8672M126.305 16.2659C126.305 16.2653 126.305 16.2646 126.305 16.264H127.305L126.305 16.2679C126.305 16.2672 126.305 16.2666 126.305 16.2659ZM126.305 16.2659C126.274 7.81358 133.491 1 141.833 1C150.22 1 157 8.06403 157 16.2346C157 24.4187 150.209 31.288 141.841 31.2923M141.841 31.2923C140.835 31.3074 139.737 31.2218 138.822 31.1078C138.274 31.0395 137.747 30.9558 137.331 30.8672M141.841 31.2923L137.331 30.8672M40.1812 102.272L39.503 101.386L38.6963 102.157L20.9327 119.13C11.2494 116.146 1 123.09 1 133.706C1 142.152 7.66843 148.968 16.2835 149H16.2871C26.7056 149 33.9261 139.18 31.3463 129.904L31.4465 129.807C31.7743 129.489 32.2361 129.042 32.7865 128.508C33.8875 127.442 35.3431 126.033 36.792 124.634C38.2412 123.234 39.6828 121.845 40.7561 120.817C41.1973 120.394 41.5749 120.034 41.8648 119.759C51.8782 127.725 64.2492 132.203 77.2005 132.525L77.2025 132.525C88.9751 132.795 100.418 129.679 110.273 123.471L111.322 122.811L110.454 121.926C110.196 121.662 109.436 120.876 108.512 119.92C107.018 118.375 105.094 116.385 104.167 115.441L103.624 114.888L102.953 115.276C95.2643 119.721 86.4827 121.946 77.4892 121.744C61.1295 121.339 49.6713 114.67 40.1812 102.272ZM127.937 45.8825L127.256 45.1506L120.608 51.3396L120.03 51.8779L120.42 52.565C124.523 59.7948 126.842 67.9577 126.637 76.272C126.313 89.1077 120.265 102.241 107.65 112.112L106.776 112.796L107.547 113.595L108.266 112.9L107.547 113.595L107.547 113.595L107.548 113.596L107.551 113.599L107.564 113.612L107.614 113.665L107.813 113.871C107.988 114.052 108.246 114.319 108.58 114.665C109.246 115.356 110.213 116.36 111.414 117.609C113.742 120.029 116.949 123.369 120.553 127.14C120.142 130.086 121.064 133.082 123.191 135.26L123.192 135.26C127.031 139.186 133.333 139.315 137.338 135.62L137.344 135.614C141.361 131.843 141.495 125.634 137.712 121.697L137.711 121.696C135.588 119.492 132.601 118.411 129.579 118.661C129.378 118.453 129.097 118.161 128.762 117.814C128.086 117.113 127.191 116.185 126.296 115.256L126.022 114.971C124.978 113.889 123.955 112.827 123.314 112.164C131.994 102.236 137.24 89.7079 137.569 76.5576C137.845 65.5592 134.625 54.7295 128.786 45.3539L127.937 45.8825ZM33.9966 14.5927L33.9966 14.5927L33.99 14.586C30.0651 10.6426 23.8282 10.5343 19.8502 14.2027L19.8502 14.2027L19.8436 14.2088C15.8274 17.9801 15.6925 24.1895 19.4763 28.1265L19.477 28.1273C21.6006 30.3322 24.5891 31.4131 27.6118 31.1615L34.2353 37.9335C25.6754 47.8693 20.6108 60.4776 20.3105 73.5588C19.9744 84.6607 22.9153 95.4928 28.8232 104.971L29.4744 106.015L30.3635 105.164L36.9807 98.8276L37.5411 98.291L37.1605 97.6148C33.0696 90.348 31.0674 82.1869 31.2731 73.8484C31.5974 62.8577 35.7773 52.3892 43.255 44.1682L43.255 44.1683L43.2624 44.16C45.8176 41.2874 48.1452 39.4567 49.6105 38.3042C49.7459 38.1977 49.8739 38.097 49.994 38.0019L50.8624 37.3139L50.0894 36.5203L36.6362 22.7068C37.0448 19.7628 36.1226 16.7691 33.9966 14.5927ZM79.2105 33.0626L79.2078 32.0626C56.8983 32.1228 38.1635 47.8512 35.2975 69.7126L35.2968 69.7181C32.3385 93.3001 49.3799 114.799 73.4038 117.753L73.4061 117.753C97.3922 120.646 119.352 103.984 122.372 80.4024L122.372 80.4C125.331 56.8469 108.289 35.348 84.2656 32.3943C84.2655 32.3943 84.2655 32.3942 84.2654 32.3942L84.1434 33.3868C82.4891 33.1805 80.8648 33.0626 79.2105 33.0626ZM72.187 83.8472L72.3512 83.0908L71.6602 82.7422C65.9254 79.8493 62.6442 74.5666 62.4648 68.2514C62.7331 58.9609 69.8392 52.3042 78.9701 52.0697C88.2294 52.3048 95.3859 59.1737 95.5054 68.251C95.4161 74.6793 92.0449 79.6946 86.2909 82.752L85.6222 83.1073L85.7829 83.8472L88.8283 97.8716H69.1416L72.187 83.8472Z" fill="#F8F9FA" stroke="#111111" stroke-width="2"/>
</svg>
