<svg width="22" height="29" viewBox="0 0 22 29" fill="none" xmlns="http://www.w3.org/2000/svg">
<path d="M1.85941 8.84664L1.85942 8.84664L3.96577 10.4438L3.96578 10.4438C4.90441 11.1555 6.24 10.9893 6.97519 10.0682C7.58508 9.30417 8.03416 8.81228 8.51076 8.49474C8.94784 8.20354 9.45482 8.02988 10.2345 8.02988C10.7949 8.02988 11.4453 8.21697 11.9331 8.5339C12.4286 8.85585 12.5947 9.1914 12.5947 9.45327C12.5947 9.66376 12.5336 9.83007 12.2745 10.0705C11.9651 10.3577 11.478 10.6506 10.7134 11.0792L10.7134 11.0793C10.6525 11.1134 10.59 11.1483 10.5259 11.184C8.85974 12.1126 6.18393 13.6039 6.18393 17.1471V17.625C6.18393 18.712 6.9824 19.6124 8.02479 19.7718C6.66577 20.5167 5.74276 21.961 5.74276 23.6177C5.74276 26.035 7.70782 28 10.1251 28C12.5425 28 14.5075 26.035 14.5075 23.6176C14.5075 21.9609 13.5845 20.5166 12.2255 19.7718C13.2679 19.6124 14.0663 18.7119 14.0663 17.625V17.3431C14.0663 17.3379 14.0665 17.336 14.0689 17.33C14.0721 17.3215 14.0833 17.2964 14.1167 17.2538C14.1909 17.159 14.3321 17.03 14.5853 16.8574C14.8354 16.6869 15.1359 16.5121 15.5015 16.3012L15.5347 16.282C15.8811 16.0821 16.2736 15.8556 16.6686 15.5996C17.4851 15.0703 18.3727 14.3776 19.0522 13.3854C19.743 12.3769 20.1829 11.1115 20.1829 9.5C20.1829 7.00222 18.8865 4.86431 17.0899 3.37979C15.2975 1.8988 12.933 1 10.6144 1C8.5233 1 6.74639 1.4301 5.21046 2.27922C3.67845 3.12618 2.44497 4.35748 1.38998 5.87341C0.725204 6.82864 0.928834 8.14103 1.85941 8.84664Z" fill="#F8F9FA" stroke="#111111" stroke-width="2"/>
</svg>
