<svg width="38" height="31" viewBox="0 0 38 31" fill="none" xmlns="http://www.w3.org/2000/svg">
<path d="M1.62382 17.6342C1.39995 18.0979 1.24642 18.4385 1.14949 18.7188H1V19.7188C1 21.3565 2.06691 22.6844 3.46453 23.5515C4.4792 24.1811 5.73954 24.6213 7.12277 24.8193C6.51837 25.1209 6.1 25.743 6.1 26.4688V28.1562C6.1 29.1817 6.93506 30 7.95 30H30.05C31.0649 30 31.9 29.1817 31.9 28.1562V26.4688C31.9 25.743 31.4816 25.1209 30.8772 24.8193C32.2605 24.6213 33.5208 24.1811 34.5355 23.5515C35.9331 22.6844 37 21.3565 37 19.7188V18.7188H36.8523C36.7535 18.4286 36.5947 18.0765 36.3608 17.5937C36.0557 16.9639 35.578 16.0233 34.8366 14.5634C34.2173 13.344 33.4141 11.7624 32.3738 9.69708L32.3737 9.69697C31.9545 8.86497 31.2856 8.29925 30.527 8.00048C31.3139 7.79149 31.9 7.07778 31.9 6.21875V4.53125C31.9 3.50585 31.0649 2.6875 30.05 2.6875H22.8452C21.8925 1.65903 20.5302 1 19 1C17.4698 1 16.1075 1.65903 15.1548 2.6875H7.95C6.93506 2.6875 6.1 3.50585 6.1 4.53125V6.21875C6.1 7.07724 6.68533 7.79059 7.47149 8.00008C6.7138 8.29852 6.04536 8.86396 5.62571 9.69708L5.62569 9.69712C4.63939 11.6554 3.86629 13.1802 3.26098 14.374C2.4512 15.971 1.94172 16.9758 1.62382 17.6342ZM16.3 24.625H11.4947C12.4783 24.3881 13.3758 24.0229 14.1355 23.5515C15.0886 22.9602 15.888 22.1545 16.3 21.1823V24.625ZM16.3 18.327C16.2111 18.1188 16.0991 17.8791 15.9608 17.5937C15.6557 16.9639 15.1779 16.0232 14.4365 14.5633C13.8173 13.3439 13.014 11.7623 11.9738 9.69708L11.9737 9.69697C11.5819 8.91936 10.972 8.37436 10.2746 8.0625H14.088C14.509 9.169 15.2969 10.0914 16.3 10.6902V18.327ZM26.5053 24.625H21.7V21.1823C22.112 22.1545 22.9114 22.9602 23.8645 23.5515C24.6242 24.0229 25.5217 24.3881 26.5053 24.625ZM22.0238 17.6342C21.8927 17.9059 21.7856 18.1353 21.7 18.3351V10.6901C22.7028 10.0914 23.4909 9.16933 23.912 8.0625H27.723C27.0269 8.37413 26.4177 8.91881 26.0257 9.69708L26.0257 9.69712C25.0394 11.6554 24.2663 13.1802 23.661 14.374C22.8512 15.971 22.3417 16.9758 22.0238 17.6342ZM6.5984 17.875L8.8 13.5042L11.0016 17.875H6.5984ZM31.4016 17.875H26.9984L29.2 13.5042L31.4016 17.875Z" fill="#F8F9FA" stroke="#111111" stroke-width="2"/>
</svg>
