<svg xmlns="http://www.w3.org/2000/svg" viewBox="0 0 184.1 11.1"><defs><style>.cls-1{fill:#fff;}</style></defs><title>Asset 1</title><g id="Layer_2" data-name="Layer 2"><g id="Layer_7_copy_2" data-name="Layer 7 copy 2"><path class="cls-1" d="M30.28,5.08h.32a.15.15,0,0,0,.16-.1l.51-1c0-.06,0-.09.09-.09s.06,0,.06.09v3.1s0,.07-.06.07-.07,0-.1-.1L30.76,6a.16.16,0,0,0-.16-.1h-.32V10.3h.83A.37.37,0,0,0,31.5,10l.79-2.81a.11.11,0,0,1,.11-.09s.07.05.07.09V10.9a.12.12,0,0,1-.12.13H28.57a.08.08,0,0,1-.09-.09s.07-.07.1-.13l.44-.42a.55.55,0,0,0,.13-.41V1.12A.53.53,0,0,0,29,.72L28.58.29s-.1-.09-.1-.13a.09.09,0,0,1,.09-.09h3.78a.13.13,0,0,1,.12.13V3.84c0,.06,0,.09-.07.09a.12.12,0,0,1-.12-.1l-.79-2.75A.37.37,0,0,0,31.11.8h-.83Z"/><path class="cls-1" d="M40.49.77H40c-.09,0-.13.08-.16.17L39,3.84a.11.11,0,0,1-.11.09c-.06,0-.08,0-.08-.1V.13s0-.06.08-.06H43.2a.07.07,0,0,1,.07.06v3.7c0,.07,0,.1-.07.1a.11.11,0,0,1-.12-.09L42.32.94c0-.09-.07-.17-.16-.17h-.54V10a.51.51,0,0,0,.12.41l.43.42s.11.09.11.13a.08.08,0,0,1-.09.09H39.92c-.07,0-.08,0-.08-.09s0-.08.1-.13l.44-.42a.54.54,0,0,0,.11-.41Z"/><path class="cls-1" d="M51.26,5.08h.33a.15.15,0,0,0,.16-.1l.51-1c0-.06,0-.09.09-.09s0,0,0,.09v3.1s0,.07,0,.07-.08,0-.11-.1L51.75,6a.16.16,0,0,0-.16-.1h-.33V10.3h.84a.38.38,0,0,0,.39-.26l.79-2.81a.11.11,0,0,1,.1-.09.09.09,0,0,1,.08.09V10.9a.12.12,0,0,1-.12.13H49.56a.08.08,0,0,1-.09-.09s.07-.07.1-.13l.44-.42a.55.55,0,0,0,.13-.41V1.12A.53.53,0,0,0,50,.72L49.57.29s-.1-.09-.1-.13a.09.09,0,0,1,.09-.09h3.78a.13.13,0,0,1,.12.13V3.84c0,.06,0,.09-.08.09a.12.12,0,0,1-.11-.1l-.79-2.75A.37.37,0,0,0,52.1.8h-.84Z"/><path class="cls-1" d="M61.63,10a.55.55,0,0,0,.13.41l.44.42s.1.09.1.13a.08.08,0,0,1-.09.09H59.92a.08.08,0,0,1-.09-.09s.07-.08.1-.13l.44-.42A.55.55,0,0,0,60.5,10V1.12a.53.53,0,0,0-.13-.4L59.93.29s-.1-.09-.1-.13a.09.09,0,0,1,.09-.09h1.82c1.52,0,2.31.81,2.31,2.71,0,1.62-.57,2.28-1.08,2.6A1.8,1.8,0,0,1,63.91,7v3.06a.38.38,0,0,0,.13.26l.47.5c0,.06.11.11.11.16s-.07,0-.14,0h-.76a.86.86,0,0,1-.94-.93V7a1,1,0,0,0-.9-1.13h-.25Zm0-4.88h.22c.71,0,1-.57,1-2.32,0-1.49-.29-2-1-2h-.22Z"/><path class="cls-1" d="M71.24,1.12a.58.58,0,0,0-.13-.4L70.75.29s-.1-.09-.1-.14a.08.08,0,0,1,.08-.08h1.76c.1,0,.14.11.17.25L74,6.6h0V1.12A.47.47,0,0,0,73.9.73L73.49.29s-.1-.09-.1-.14a.09.09,0,0,1,.09-.08h1.93a.09.09,0,0,1,.09.08c0,.05-.06.1-.11.14L75,.72a.58.58,0,0,0-.13.4v9.75a.14.14,0,0,1-.15.16h-.61c-.13,0-.25-.14-.29-.36l-1.71-8h0V10a.51.51,0,0,0,.14.39l.4.44s.1.09.1.15a.08.08,0,0,1-.09.07H70.73a.07.07,0,0,1-.08-.07c0-.06.07-.1.1-.15l.36-.42a.63.63,0,0,0,.13-.41Z"/><path class="cls-1" d="M84.4,8.59c0-.07-.06-.13-.13-.13H83.18s-.07,0-.08.1l-.22,1.61a.3.3,0,0,0,.07.26l.32.34c.06.07.15.13.15.17a.09.09,0,0,1-.1.09H81.64a.08.08,0,0,1-.09-.09s.06-.1.1-.14l.41-.41a.65.65,0,0,0,.12-.37L83.51.2c0-.07,0-.13.11-.13h.54c.08,0,.12.08.14.16L85.68,10a.63.63,0,0,0,.16.39l.43.38s.09.09.09.13,0,.09-.11.09h-2.1a.09.09,0,0,1-.1-.09s.06-.08.1-.13l.39-.39a.36.36,0,0,0,.08-.29Zm-.21-.9s.08-.05.06-.11L83.74,4h0l-.48,3.6c0,.06,0,.09,0,.09Z"/><path class="cls-1" d="M93.08,1.12A.53.53,0,0,0,93,.72L92.51.29s-.1-.09-.1-.13A.09.09,0,0,1,92.5.07h2.29a.09.09,0,0,1,.09.09s-.08.09-.11.13l-.43.43a.49.49,0,0,0-.14.4V10.3h.59c.17,0,.32,0,.38-.22l.9-2.83c0-.06,0-.11.09-.11s.08.05.08.11v3.58c0,.13,0,.2-.17.2H92.5a.08.08,0,0,1-.09-.09s.07-.07.1-.13l.44-.42a.55.55,0,0,0,.13-.41Z"/><path class="cls-1" d="M112,5.08h.32a.15.15,0,0,0,.16-.1L113,4c0-.06,0-.09.09-.09s.06,0,.06.09v3.1s0,.07-.06.07-.08,0-.11-.1L112.49,6a.16.16,0,0,0-.16-.1H112V10.3h.83a.37.37,0,0,0,.39-.26L114,7.23a.11.11,0,0,1,.1-.09.09.09,0,0,1,.08.09V10.9a.12.12,0,0,1-.12.13H110.3a.08.08,0,0,1-.09-.09s.07-.07.1-.13l.44-.42a.55.55,0,0,0,.13-.41V1.12a.53.53,0,0,0-.13-.4l-.44-.43s-.1-.09-.1-.13a.09.09,0,0,1,.09-.09h3.78a.13.13,0,0,1,.12.13V3.84c0,.06,0,.09-.08.09a.12.12,0,0,1-.11-.1l-.79-2.75a.37.37,0,0,0-.38-.28H112Z"/><path class="cls-1" d="M121.17,1.12a.58.58,0,0,0-.13-.4l-.37-.43s-.1-.09-.1-.14a.09.09,0,0,1,.09-.08h1.75c.1,0,.15.11.18.25l1.34,6.28h0V1.12a.5.5,0,0,0-.13-.39l-.41-.44s-.1-.09-.1-.14a.09.09,0,0,1,.09-.08h1.92a.09.09,0,0,1,.09.08c0,.05-.06.1-.1.14L125,.72a.64.64,0,0,0-.13.4v9.75c0,.1,0,.16-.14.16h-.62c-.13,0-.25-.14-.29-.36l-1.71-8h0V10a.51.51,0,0,0,.15.39l.39.44c.05,0,.11.09.11.15a.08.08,0,0,1-.09.07h-1.93a.08.08,0,0,1-.09-.07c0-.06.07-.1.1-.15l.37-.42a.63.63,0,0,0,.13-.41Z"/><path class="cls-1" d="M133.27.77h-.54c-.09,0-.13.08-.16.17l-.76,2.9a.11.11,0,0,1-.12.09c-.06,0-.07,0-.07-.1V.13a.07.07,0,0,1,.07-.06H136c.05,0,.08,0,.08.06v3.7c0,.07,0,.1-.08.1a.11.11,0,0,1-.11-.09L135.1.94c0-.09-.08-.17-.16-.17h-.54V10a.54.54,0,0,0,.11.41l.44.42c.05,0,.1.09.1.13s0,.09-.08.09H132.7a.08.08,0,0,1-.09-.09s.06-.08.11-.13l.43-.42a.51.51,0,0,0,.12-.41Z"/><path class="cls-1" d="M142.92,1.12a.53.53,0,0,0-.13-.4l-.44-.43s-.1-.09-.1-.13a.09.09,0,0,1,.08-.09h2.3a.09.09,0,0,1,.09.09s-.08.09-.11.13l-.44.43a.53.53,0,0,0-.13.4V10a.55.55,0,0,0,.13.41l.44.42s.11.09.11.13a.08.08,0,0,1-.09.09h-2.3a.08.08,0,0,1-.08-.09s.07-.08.1-.13l.44-.42a.55.55,0,0,0,.13-.41Z"/><path class="cls-1" d="M152.56.77H152c-.08,0-.13.08-.16.17l-.76,2.9a.11.11,0,0,1-.11.09c-.06,0-.08,0-.08-.1V.13s0-.06.08-.06h4.28a.07.07,0,0,1,.07.06v3.7c0,.07,0,.1-.07.1a.11.11,0,0,1-.12-.09l-.76-2.9c0-.09-.07-.17-.16-.17h-.54V10a.51.51,0,0,0,.12.41l.43.42s.11.09.11.13a.08.08,0,0,1-.09.09H152c-.07,0-.08,0-.08-.09s.05-.08.1-.13l.44-.42a.54.54,0,0,0,.11-.41Z"/><path class="cls-1" d="M162.21,1.12a.53.53,0,0,0-.13-.4l-.44-.43s-.1-.09-.1-.13a.09.09,0,0,1,.09-.09h2.29a.09.09,0,0,1,.09.09s-.08.09-.1.13l-.44.43a.49.49,0,0,0-.13.4V10a.51.51,0,0,0,.13.41l.44.42s.1.09.1.13a.08.08,0,0,1-.09.09h-2.29a.08.08,0,0,1-.09-.09s.07-.08.1-.13l.44-.42a.55.55,0,0,0,.13-.41Z"/><path class="cls-1" d="M172,5.08h.32c.08,0,.14,0,.16-.1L173,4c0-.06,0-.09.08-.09s.06,0,.06.09v3.1s0,.07-.06.07-.07,0-.1-.1L172.48,6a.15.15,0,0,0-.16-.1H172V10.3h.84a.39.39,0,0,0,.39-.26L174,7.23a.1.1,0,0,1,.1-.09s.07.05.07.09V10.9a.12.12,0,0,1-.11.13h-3.79c-.06,0-.08,0-.08-.09s.07-.07.1-.13l.44-.42a.55.55,0,0,0,.13-.41V1.12a.53.53,0,0,0-.13-.4l-.44-.43s-.1-.09-.1-.13a.08.08,0,0,1,.08-.09h3.79a.12.12,0,0,1,.11.13V3.84c0,.06,0,.09-.07.09a.13.13,0,0,1-.12-.1l-.78-2.75a.37.37,0,0,0-.38-.28H172Z"/><path class="cls-1" d="M183.87,3.86s0,.07-.09.07-.07,0-.09-.1c-.23-1.19-.93-3-1.6-3-.37,0-.4.31-.4.69,0,.72.19,1.43,1.27,3.73S184.1,7.86,184.1,9c0,1.54-.8,2-1.34,2a1.36,1.36,0,0,1-.82-.28.81.81,0,0,0-.29-.14c-.06,0-.18.1-.47.32-.06,0-.12.1-.17.1s-.08,0-.08-.07V7.28s0-.11.08-.11.07.06.08.11c.27,1.17.72,3,1.58,3,.28,0,.43-.31.43-.76a9.56,9.56,0,0,0-1.28-3.8,8.9,8.9,0,0,1-1.08-3.84c0-1.39.6-1.83,1.35-1.83a1.45,1.45,0,0,1,.82.34.6.6,0,0,0,.21.09.84.84,0,0,0,.34-.24c.13-.11.22-.19.31-.19s.1.08.1.16Z"/></g><g id="Layer_4_copy_3" data-name="Layer 4 copy 3"><path class="cls-1" d="M13,5l8.68-3.72L21.06.3,13.79,3.41Z"/><path class="cls-1" d="M9.06,6.2.58,9.84l.38,1L8.22,7.75Z"/><path class="cls-1" d="M.6,1.46,22.22,11.1l-.58-1.41L0,0Z"/><path class="cls-1" d="M21.64,10.85V9.7c0-3.21,0-6.43,0-9.64L20.57.51v9.84Z"/><path class="cls-1" d="M.58,11.06.6.27,1.66.74v9.82Z"/><path class="cls-1" d="M21.51,5H16.25l-.61.69h5.87Z"/><path class="cls-1" d="M.74,5.11H6l.61.69H.74Z"/></g></g></svg>